<svg width="739" height="143" viewBox="0 0 739 143" fill="none" xmlns="http://www.w3.org/2000/svg">
<path d="M40.5651 121.283C33.3047 121.283 27.1055 120.497 21.9673 118.924C16.9409 117.24 12.8081 115.219 9.56882 112.86C6.44127 110.502 4.09561 108.088 2.53183 105.617C0.968052 103.034 0.130315 100.844 0.0186164 99.0475C-0.0930819 97.8122 0.297862 96.8015 1.19145 96.0154C2.08504 95.117 3.03447 94.6678 4.03976 94.6678H23.1402C23.4753 94.6678 23.7545 94.724 23.9779 94.8363C24.2013 94.9486 24.5364 95.1732 24.9832 95.5101C26.4353 96.2962 27.8874 97.3069 29.3394 98.5422C30.7915 99.6652 32.467 100.676 34.3659 101.574C36.2647 102.473 38.5545 102.922 41.2353 102.922C44.3629 102.922 46.9878 102.304 49.11 101.069C51.2323 99.8336 52.2934 97.9807 52.2934 95.5101C52.2934 93.7133 51.7908 92.2534 50.7855 91.1304C49.7802 89.8951 47.7138 88.716 44.5863 87.593C41.5704 86.47 36.9908 85.347 30.8474 84.2241C25.039 82.8765 19.9568 81.1358 15.6005 79.0022C11.2443 76.7562 7.89335 73.8926 5.54768 70.4113C3.20202 66.8178 2.02919 62.4942 2.02919 57.4408C2.02919 52.9489 3.48126 48.6253 6.38542 44.4703C9.28958 40.3152 13.5341 36.9463 19.119 34.3634C24.7039 31.6682 31.5734 30.3207 39.7274 30.3207C46.2059 30.3207 51.7908 31.1067 56.4821 32.6789C61.2851 34.1388 65.3063 36.0479 68.5455 38.4062C71.8965 40.7644 74.4097 43.1789 76.0852 45.6494C77.7607 48.12 78.6542 50.366 78.7659 52.3874C78.8776 53.5103 78.5425 54.521 77.7606 55.4194C76.9788 56.2055 76.0852 56.5986 75.0799 56.5986H57.655C57.2082 56.5986 56.7614 56.5424 56.3146 56.4301C55.8678 56.2055 55.4768 55.9809 55.1417 55.7563C53.8014 55.0825 52.461 54.1841 51.1206 53.0612C49.7802 51.9382 48.2164 50.9275 46.4293 50.0291C44.6421 49.1307 42.4081 48.6815 39.7274 48.6815C36.7115 48.6815 34.3659 49.3553 32.6904 50.7029C31.0149 52.0505 30.1772 53.7911 30.1772 55.9248C30.1772 57.3847 30.624 58.7322 31.5175 59.9675C32.5228 61.2028 34.4776 62.3258 37.3817 63.3365C40.3976 64.3472 45.033 65.4702 51.2881 66.7054C58.9953 67.9407 65.1387 69.9621 69.7184 72.7696C74.298 75.4647 77.5373 78.6653 79.4361 82.3711C81.335 85.9647 82.2844 89.7829 82.2844 93.8256C82.2844 99.2159 80.6648 103.989 77.4256 108.144C74.298 112.299 69.6067 115.555 63.3516 117.914C57.0965 120.16 49.501 121.283 40.5651 121.283Z" fill="black"/>
<path d="M138.536 121.283C129.153 121.283 121.223 119.767 114.744 116.735C108.377 113.703 103.463 109.379 100 103.764C96.649 98.0368 94.7501 91.2427 94.3033 83.3818C94.1916 81.1358 94.1358 78.6091 94.1358 75.8016C94.1358 72.8819 94.1916 70.3552 94.3033 68.2215C94.7501 60.2483 96.7607 53.4542 100.335 47.8393C103.909 42.2243 108.88 37.9008 115.247 34.8688C121.725 31.8367 129.488 30.3207 138.536 30.3207C147.695 30.3207 155.458 31.8367 161.825 34.8688C168.303 37.9008 173.33 42.2243 176.904 47.8393C180.479 53.4542 182.489 60.2483 182.936 68.2215C183.048 70.3552 183.104 72.8819 183.104 75.8016C183.104 78.6091 183.048 81.1358 182.936 83.3818C182.489 91.2427 180.534 98.0368 177.072 103.764C173.721 109.379 168.806 113.703 162.328 116.735C155.961 119.767 148.03 121.283 138.536 121.283ZM138.536 100.732C143.562 100.732 147.193 99.2159 149.426 96.1839C151.772 93.1518 153.113 88.6037 153.448 82.5396C153.559 80.8551 153.615 78.6091 153.615 75.8016C153.615 72.9942 153.559 70.7482 153.448 69.0637C153.113 63.1119 151.772 58.6199 149.426 55.5879C147.193 52.4435 143.562 50.8713 138.536 50.8713C133.621 50.8713 129.991 52.4435 127.645 55.5879C125.3 58.6199 124.015 63.1119 123.792 69.0637C123.68 70.7482 123.624 72.9942 123.624 75.8016C123.624 78.6091 123.68 80.8551 123.792 82.5396C124.015 88.6037 125.3 93.1518 127.645 96.1839C129.991 99.2159 133.621 100.732 138.536 100.732Z" fill="black"/>
<path d="M203.771 119.598C202.542 119.598 201.537 119.205 200.755 118.419C199.973 117.633 199.582 116.622 199.582 115.387V36.2163C199.582 34.9811 199.973 33.9704 200.755 33.1843C201.537 32.3982 202.542 32.0051 203.771 32.0051H223.039C224.267 32.0051 225.273 32.3982 226.055 33.1843C226.836 33.9704 227.227 34.9811 227.227 36.2163V42.6174C230.132 39.1361 233.929 36.2163 238.621 33.8581C243.312 31.4998 248.841 30.3207 255.208 30.3207C261.686 30.3207 267.383 31.7805 272.298 34.7003C277.324 37.6201 281.234 41.9436 284.026 47.6708C286.93 53.2858 288.382 60.1921 288.382 68.3899V115.387C288.382 116.622 287.935 117.633 287.042 118.419C286.26 119.205 285.311 119.598 284.194 119.598H263.083C261.966 119.598 260.96 119.205 260.067 118.419C259.285 117.633 258.894 116.622 258.894 115.387V69.4006C258.894 64.1226 257.609 60.0798 255.04 57.2724C252.583 54.3526 248.897 52.8927 243.982 52.8927C239.403 52.8927 235.716 54.3526 232.924 57.2724C230.243 60.0798 228.903 64.1226 228.903 69.4006V115.387C228.903 116.622 228.456 117.633 227.562 118.419C226.781 119.205 225.831 119.598 224.714 119.598H203.771Z" fill="black"/>
<path d="M333.218 121.283C327.186 121.283 321.769 120.16 316.966 117.914C312.275 115.555 308.533 112.411 305.74 108.481C302.948 104.55 301.552 100.114 301.552 95.1732C301.552 87.2 304.791 80.9112 311.269 76.307C317.748 71.5904 326.349 68.3899 337.072 66.7054L358.015 63.5049V61.1467C358.015 57.1039 357.178 54.0157 355.502 51.882C353.827 49.7483 350.755 48.6815 346.287 48.6815C343.159 48.6815 340.59 49.2991 338.58 50.5344C336.681 51.7697 335.173 53.4542 334.056 55.5879C333.051 57.0478 331.654 57.7777 329.867 57.7777H311.102C309.873 57.7777 308.924 57.4408 308.254 56.767C307.583 55.9809 307.304 55.0825 307.416 54.0718C307.416 52.0505 308.142 49.7483 309.594 47.1655C311.158 44.4703 313.503 41.8313 316.631 39.2484C319.759 36.6655 323.78 34.5319 328.694 32.8474C333.609 31.1629 339.529 30.3207 346.454 30.3207C353.715 30.3207 359.914 31.1629 365.052 32.8474C370.19 34.5319 374.323 36.8901 377.451 39.9222C380.69 42.9543 383.092 46.5478 384.655 50.7029C386.219 54.7456 387.001 59.2376 387.001 64.1787V115.387C387.001 116.622 386.554 117.633 385.661 118.419C384.879 119.205 383.929 119.598 382.812 119.598H363.377C362.148 119.598 361.143 119.205 360.361 118.419C359.579 117.633 359.188 116.622 359.188 115.387V109.491C357.736 111.625 355.781 113.59 353.324 115.387C350.867 117.184 347.962 118.587 344.611 119.598C341.372 120.721 337.574 121.283 333.218 121.283ZM341.093 102.08C344.332 102.08 347.236 101.406 349.805 100.058C352.486 98.5983 354.553 96.4085 356.005 93.4887C357.568 90.4566 358.35 86.6946 358.35 82.2027V79.8444L344.109 82.3711C338.859 83.2695 335.005 84.6732 332.548 86.5823C330.202 88.3791 329.03 90.5128 329.03 92.9833C329.03 94.8924 329.588 96.5208 330.705 97.8684C331.822 99.2159 333.274 100.283 335.061 101.069C336.848 101.743 338.859 102.08 341.093 102.08Z" fill="black"/>
<path d="M449.821 119.598C442.672 119.598 436.473 118.475 431.223 116.229C426.085 113.871 422.12 110.277 419.327 105.449C416.535 100.507 415.138 94.1625 415.138 86.4139V54.0718V4.2112C415.138 2.97592 415.529 1.96523 416.311 1.17914C417.205 0.393048 418.21 0 419.327 0H438.763C439.991 0 440.997 0.393048 441.779 1.17914C442.56 1.96523 442.951 2.97592 442.951 4.2112V54.0718V84.0556C442.951 87.8738 443.677 90.9058 445.129 93.1518C446.582 95.3978 449.039 96.5208 452.502 96.5208H465.403C466.631 96.5208 467.637 96.9138 468.419 97.6999C469.2 98.486 469.591 99.4967 469.591 100.732V115.387C469.591 116.622 469.2 117.633 468.419 118.419C467.637 119.205 466.631 119.598 465.403 119.598H449.821Z" fill="black"/>
<path d="M487.652 119.598C486.424 119.598 485.418 119.205 484.637 118.419C483.855 117.633 483.464 116.622 483.464 115.387L483.296 63.5049C483.296 62.2696 483.687 61.259 484.469 60.4729C485.251 59.6868 486.256 59.2937 487.485 59.2937H507.256C508.373 59.2937 509.322 59.6868 510.104 60.4729C510.997 61.259 511.444 62.2696 511.444 63.5049L511.612 115.387C511.612 116.622 511.165 117.633 510.271 118.419C509.489 119.205 508.54 119.598 507.423 119.598H487.652Z" fill="#EF4444"/>
<rect x="392.87" y="23.2342" width="119.402" height="23.2342" rx="1.57068" fill="#EF4444"/>
<path d="M551.475 139.031C551.475 139.883 551.166 140.619 550.546 141.238C549.926 141.858 549.191 142.167 548.339 142.167H533.701C532.849 142.167 532.114 141.858 531.494 141.238C530.874 140.619 530.565 139.883 530.565 139.031V62.8226C530.565 61.9707 530.874 61.235 531.494 60.6154C532.114 59.9958 532.849 59.686 533.701 59.686H547.758C548.61 59.686 549.346 59.9958 549.965 60.6154C550.585 61.235 550.895 61.9707 550.895 62.8226V65.4946C552.134 64.0231 553.295 62.8226 554.38 61.8933C555.541 60.9639 557.129 60.1894 559.143 59.5698C561.234 58.8728 563.867 58.5243 567.042 58.5243C574.4 58.5243 580.479 60.7703 585.281 65.2622C590.16 69.7542 592.755 76.3759 593.065 85.1275C593.142 85.902 593.181 87.4509 593.181 89.7743C593.181 92.1752 593.142 93.7629 593.065 94.5373C592.755 103.289 590.199 109.949 585.397 114.519C580.596 119.011 574.477 121.257 567.042 121.257C563.015 121.257 559.762 120.56 557.284 119.166C554.806 117.772 552.869 116.145 551.475 114.286V139.031ZM572.27 86.6377C572.038 83.6173 571.07 81.1777 569.366 79.3189C567.739 77.4602 565.222 76.5308 561.815 76.5308C558.639 76.5308 556.2 77.4215 554.496 79.2028C552.869 80.9841 551.863 83.1913 551.475 85.8245C551.32 87.3735 551.243 88.7288 551.243 89.8905C551.243 91.0522 551.32 92.4075 551.475 93.9565C551.785 96.5123 552.792 98.7195 554.496 100.578C556.2 102.36 558.639 103.25 561.815 103.25C565.222 103.25 567.739 102.321 569.366 100.462C571.07 98.6033 572.038 96.1637 572.27 93.1433C572.425 91.5943 572.502 90.5101 572.502 89.8905C572.502 89.2709 572.425 88.1867 572.27 86.6377Z" fill="black"/>
<path d="M622.315 96.5123C622.315 99.765 623.361 102.088 625.452 103.483C627.543 104.877 629.983 105.574 632.771 105.574C634.939 105.574 636.72 105.341 638.115 104.877C639.509 104.412 640.709 103.754 641.716 102.902C642.568 102.205 643.187 101.779 643.575 101.624C643.962 101.391 644.62 101.275 645.549 101.275H660.652C661.426 101.275 662.046 101.508 662.51 101.972C662.975 102.437 663.207 103.057 663.207 103.831C663.207 105.38 662.046 107.587 659.722 110.453C657.399 113.241 653.953 115.758 649.383 118.004C644.814 120.172 639.276 121.257 632.771 121.257C622.78 121.257 615.035 118.507 609.536 113.009C604.115 107.432 601.404 99.7263 601.404 89.8905C601.404 83.7722 602.605 78.3508 605.006 73.6266C607.484 68.9023 611.085 65.2235 615.81 62.5903C620.534 59.8796 626.188 58.5243 632.771 58.5243C639.973 58.5243 645.898 60.0733 650.545 63.1712C655.269 66.1916 658.716 70.1414 660.884 75.0206C663.053 79.8223 664.137 84.8564 664.137 90.1228V93.3756C664.137 94.2276 663.827 94.9633 663.207 95.5829C662.588 96.2025 661.852 96.5123 661 96.5123H622.315ZM643.226 83.6173C642.916 80.9841 641.832 78.7768 639.973 76.9955C638.192 75.1368 635.791 74.2074 632.771 74.2074C629.75 74.2074 627.311 75.1368 625.452 76.9955C623.671 78.7768 622.625 80.9841 622.315 83.6173H643.226Z" fill="black"/>
<path d="M711.003 61.6609C712.319 60.3443 713.83 59.686 715.533 59.686H732.611C733.385 59.686 734.043 59.9571 734.586 60.4992C735.128 61.0413 735.399 61.6996 735.399 62.4741C735.399 62.8614 735.321 63.2099 735.166 63.5197C735.011 63.8295 734.663 64.2554 734.121 64.7975L713.442 87.7994L737.838 115.1C738.613 115.952 739 116.687 739 117.307C739 118.081 738.729 118.74 738.187 119.282C737.645 119.824 736.986 120.095 736.212 120.095H718.902C716.889 120.095 715.301 119.437 714.139 118.12L695.668 97.3255V116.958C695.668 117.81 695.358 118.546 694.739 119.166C694.119 119.785 693.384 120.095 692.532 120.095H677.894C677.042 120.095 676.306 119.785 675.687 119.166C675.067 118.546 674.757 117.81 674.757 116.958V40.7501C674.757 39.8982 675.067 39.1625 675.687 38.5429C676.306 37.9233 677.042 37.6135 677.894 37.6135H692.532C693.384 37.6135 694.119 37.9233 694.739 38.5429C695.358 39.1625 695.668 39.8982 695.668 40.7501V78.3896L711.003 61.6609Z" fill="black"/>
</svg>
